<svg width="39" height="39" viewBox="0 0 39 39" fill="none" xmlns="http://www.w3.org/2000/svg">
<path fill-rule="evenodd" clip-rule="evenodd" d="M19.3628 23.01L34.2124 37.8596C34.7075 38.3378 35.3705 38.6024 36.0588 38.5964C36.7471 38.5904 37.4055 38.3143 37.8922 37.8276C38.3788 37.3409 38.6549 36.6826 38.6609 35.9943C38.6669 35.306 38.4023 34.6429 37.9241 34.1479L23.0745 19.2982L37.9241 4.44862C38.4023 3.95354 38.6669 3.29046 38.6609 2.60219C38.6549 1.91392 38.3788 1.25554 37.8922 0.768845C37.4055 0.282149 36.7471 0.00608008 36.0588 9.92319e-05C35.3705 -0.00588162 34.7075 0.258703 34.2124 0.736868L19.3628 15.5865L4.51313 0.736868C4.01582 0.270524 3.35659 0.0159529 2.67492 0.027022C1.99326 0.0380911 1.34264 0.313932 0.860731 0.796178C0.378827 1.27842 0.103445 1.92924 0.0928586 2.61091C0.0822718 3.29259 0.337309 3.95164 0.804006 4.44862L15.651 19.2982L0.801381 34.1479C0.550666 34.39 0.350689 34.6797 0.213115 34.9999C0.0755419 35.3202 0.00312788 35.6646 9.91122e-05 36.0132C-0.00292966 36.3617 0.0634868 36.7074 0.195474 37.03C0.327461 37.3526 0.522376 37.6457 0.768844 37.8922C1.01531 38.1386 1.3084 38.3335 1.631 38.4655C1.9536 38.5975 2.29926 38.6639 2.64781 38.6609C2.99635 38.6579 3.34081 38.5855 3.66107 38.4479C3.98133 38.3103 4.27098 38.1103 4.51313 37.8596L19.3628 23.01Z" fill="white"/>
</svg>
