<?xml version="1.0" encoding="UTF-8"?>
<!DOCTYPE svg PUBLIC "-//W3C//DTD SVG 1.1//EN" "http://www.w3.org/Graphics/SVG/1.1/DTD/svg11.dtd">
<!-- Creator: CorelDRAW 2020 (64 Bit) -->
<?xml-stylesheet href="eye-icon.css" type="text/css"?>
<svg xmlns="http://www.w3.org/2000/svg" xml:space="preserve" width="1803px" height="1092px" version="1.1" style="shape-rendering:geometricPrecision; text-rendering:geometricPrecision; image-rendering:optimizeQuality; fill-rule:evenodd; clip-rule:evenodd"
viewBox="0 0 355.7 215.38"
 xmlns:xlink="http://www.w3.org/1999/xlink"
 xmlns:xodm="http://www.corel.com/coreldraw/odm/2003">
 <g id="Camada_x0020_1">
  <metadata id="CorelCorpID_0Corel-Layer"/>
  <path class="fil0" d="M22.93 107.69c0,-5.74 22.25,-27.85 27.26,-32.49l16.61 -13.27c70.61,-52.97 150.56,-53.75 221.33,-0.59 16.07,12.07 16.77,13.06 32,28.44 2.13,2.16 12.66,15.27 12.66,17.91 0,5.75 -23.76,29.49 -27.3,32.45 -2.79,2.34 -5.26,4.24 -7.95,6.64 -27.48,24.54 -77.3,47.06 -119.68,47.06 -41.62,0 -82.37,-18.84 -110.27,-39.8l-12.86 -10.07c-8.23,-7.18 -11.01,-9.6 -19.13,-18.38 -2.11,-2.28 -12.67,-15.31 -12.67,-17.9zm-22.93 -0.7c0,21.94 47.89,61.55 67.1,73.25 30.92,18.82 65.68,35.14 103.81,35.14 30.1,0 44.21,-1.86 71.65,-11.72 8.62,-3.1 16.08,-6.79 24,-10.75 27.6,-13.8 58.98,-37.27 77.25,-61.69 15.86,-21.19 15.86,-25.87 0,-47.06 -32.85,-43.9 -104.19,-84.16 -159,-84.16 -37.26,0 -51.91,3.67 -83.97,16.77 -9.15,3.74 -25.59,13.23 -33.85,18.26 -3.85,2.35 -6.62,4.54 -10.3,7.07 -9.15,6.31 -15.62,12.38 -23.83,19.24 -8.52,7.12 -32.86,34.04 -32.86,45.65z"/>
  <path class="fil0" d="M161.19 107.69c-28.9,0 -38.35,-38.05 -13.68,-51.2 21.74,-11.59 48.61,9.65 37.52,35.44 -2.3,5.35 -8.08,10.73 -13.31,13.09 -1.77,0.8 -7.95,2.67 -10.53,2.67zm-47.94 -4.17c0,17.67 1.66,27.31 11.81,41.68l6.66 7.93c10.45,10.44 25.99,19.17 41.97,19.17 19.01,0 26.23,-1.63 41.69,-11.81 7.68,-5.05 16.69,-15.78 20.86,-24.3 11.99,-24.52 6.76,-55.13 -12.49,-74.39 -8.55,-8.54 -24.81,-18.72 -41.72,-18.72l-8.34 0c-30.42,0 -60.44,30.02 -60.44,60.44z"/>
 </g>
</svg>
