<svg width="62" height="42" viewBox="0 0 62 42" fill="none" xmlns="http://www.w3.org/2000/svg">
    <path d="M3.44445 41.5C2.46853 41.5 1.6499 41.1693 0.988567 40.508C0.327234 39.8467 -0.00228438 39.0292 1.19185e-05 38.0556C1.19185e-05 37.0796 0.330679 36.261 0.992012 35.5997C1.65334 34.9384 2.47083 34.6088 3.44445 34.6111H58.5555C59.5315 34.6111 60.3501 34.9418 61.0114 35.6031C61.6728 36.2645 62.0023 37.0819 62 38.0556C62 39.0315 61.6693 39.8501 61.008 40.5115C60.3467 41.1728 59.5292 41.5023 58.5555 41.5H3.44445ZM3.44445 24.2778C2.46853 24.2778 1.6499 23.9471 0.988567 23.2858C0.327234 22.6245 -0.00228438 21.807 1.19185e-05 20.8334C1.19185e-05 19.8574 0.330679 19.0388 0.992012 18.3775C1.65334 17.7161 2.47083 17.3866 3.44445 17.3889H58.5555C59.5315 17.3889 60.3501 17.7196 61.0114 18.3809C61.6728 19.0422 62.0023 19.8597 62 20.8334C62 21.8093 61.6693 22.6279 61.008 23.2892C60.3467 23.9506 59.5292 24.2801 58.5555 24.2778H3.44445ZM3.44445 7.05559C2.46853 7.05559 1.6499 6.72492 0.988567 6.06358C0.327234 5.40225 -0.00228438 4.58477 1.19185e-05 3.61114C1.19185e-05 2.63522 0.330679 1.81659 0.992012 1.15525C1.65334 0.493922 2.47083 0.164403 3.44445 0.166699H58.5555C59.5315 0.166699 60.3501 0.497366 61.0114 1.1587C61.6728 1.82003 62.0023 2.63751 62 3.61114C62 4.58707 61.6693 5.4057 61.008 6.06703C60.3467 6.72836 59.5292 7.05788 58.5555 7.05559H3.44445Z" fill="white"/>
</svg>
