<?xml version="1.0" encoding="UTF-8"?>
<!DOCTYPE svg PUBLIC "-//W3C//DTD SVG 1.1//EN" "http://www.w3.org/Graphics/SVG/1.1/DTD/svg11.dtd">
<!-- Creator: CorelDRAW 2020 (64 Bit) -->
<?xml-stylesheet href="icon-list.css" type="text/css"?>
<svg xmlns="http://www.w3.org/2000/svg" xml:space="preserve" width="879px" height="719px" version="1.1" style="shape-rendering:geometricPrecision; text-rendering:geometricPrecision; image-rendering:optimizeQuality; fill-rule:evenodd; clip-rule:evenodd"
viewBox="0 0 119.05 97.38"
 xmlns:xlink="http://www.w3.org/1999/xlink"
 xmlns:xodm="http://www.corel.com/coreldraw/odm/2003">
 <g id="Camada_x0020_1">
  <metadata id="CorelCorpID_0Corel-Layer"/>
  <g id="_2252922519200">
   <path class="fil0" d="M22.75 43.36l0 0zm95.97 26.51c-2.29,5.98 -2.76,5.9 -7.71,10.85 -3.04,3.04 -7.2,7.72 -10.41,10.26l-0.49 -2.83c-1.07,-1.24 -0.3,0.2 -0.76,-3.77 -0.16,-1.43 -0.29,-2.8 -0.39,-4.2l-0.61 -7.18c0.1,-0.99 0.03,-0.5 0.27,-1.07 0.19,-1.2 0.09,-0.51 0.01,-1.63l-0.42 -4.19c-1.15,-5.16 -10.63,-7.33 -9.51,4.12 0.2,2.28 0.47,7.79 -0.18,9.56 -1.19,4.87 -3.19,9.1 -8.88,11.62 -2.26,1.01 -4.78,1.35 -6.59,1.23 -1.82,-0.11 -5.15,-0.49 -6.77,-1.19 3.51,-3.52 5.67,-6.3 7.3,-9.77 1.09,-2.33 3.15,-7.88 1.92,-10.13 2.24,-7.36 -4.12,-9.64 -8.07,-4.54 -3.5,4.52 -3.39,8.87 -8.83,13.25 -4.2,3.4 -9.93,4.54 -13.39,4 -4.11,-0.64 -9.55,-2.83 -13.65,-6 2.86,-2.85 4.94,-5.56 7.18,-8.55l6.17 -8.99 -3.09 1.29c-0.22,-0.95 -0.63,-0.24 1.34,-3.09 0.71,-1.05 1.49,-2.36 2.06,-3.32 -2.45,0.48 -7.82,3.33 -10.49,4.55 -6.76,3.06 -13.56,7.78 -20.93,1.7 -3.87,-3.2 -7.3,-4.59 -10.69,-7.23 2.54,-2.55 7,-5.18 9.76,-6.55 1.81,-0.89 3,-1.51 4.79,-2.27 1.51,-0.65 3.93,-1.45 5.09,-2.44 -1.74,-1.08 -3.28,-1.02 -5.01,-2.02l5.82 -2.73c-2.87,-1.56 -8.55,-2.53 -10.57,-4.05 13.1,-13.1 23.28,-4.26 36.71,3.2 1.92,1.07 4.15,2.76 6,1.79 3.81,-1.99 1.76,-5.26 1.63,-5.92 2.86,-4.51 -4.13,-8.8 -8.25,-11.36 -4.05,-2.52 -9.19,-4.76 -12.84,-7.37 2.74,-1.68 11.76,-5.25 15.55,-5.1 13.08,0.5 14.25,13.04 17.11,17.69 2.61,4.22 9.35,11.78 14.64,8.25 3.6,-2.39 2.95,-5.05 2.5,-7.53 2.27,-4.42 -3.09,-9.75 -6.16,-14.21 -1.89,-2.74 -8.55,-11.42 -9.22,-13.75 1.94,-0.39 6.51,-0.28 8.68,0.03 29.08,4.16 41.12,32.79 23.65,50.26 3.19,3.2 6.39,6.39 9.58,9.58 3.71,3.71 6.07,6 6.15,9.75z"/>
   <path class="fil1" d="M106.07 53.63c-14.64,-1.88 -29.67,-2.68 -44.01,-1.14 -1.64,-0.01 -2.45,-5.39 -1.06,-5.48 14.99,-2.58 30.3,-1.94 44.93,0.12 -0.86,1.18 -1.84,2.32 -2.94,3.41l3.08 3.09z"/>
   <path class="fil2" d="M86.04 28.21c-1.13,-2.59 -18.33,-26.11 -18.98,-27.96l3.6 0c0.67,2.33 7.33,11.01 9.22,13.75 3.07,4.46 8.43,9.79 6.16,14.21zm-10.54 43.34c-0.94,-2.39 -3.72,-2.93 -5.76,-1.82 -2.13,1.16 -3.68,4.51 -4.55,6.26 -2.38,4.82 -4.62,9.06 -10.4,11.58 -4.46,1.94 -8.71,2.3 -13.18,0.81 -2.63,-0.88 -11.22,-5.14 -13.17,-7l3.12 -3.12c4.1,3.17 9.54,5.36 13.65,6 3.46,0.54 9.19,-0.6 13.39,-4 5.44,-4.38 5.33,-8.73 8.83,-13.25 3.95,-5.1 10.31,-2.82 8.07,4.54zm-9.22 19.9c1.62,0.7 4.95,1.08 6.77,1.19 1.81,0.12 4.33,-0.22 6.59,-1.23 5.69,-2.52 7.69,-6.75 8.88,-11.62 1.68,5.88 -2.84,15.31 -10.68,17.23 -4.25,1.04 -14.36,-0.47 -14.98,-0.84 -1.13,-0.67 -0.57,-0.68 0.53,-1.89 0.81,-0.9 2,-1.96 2.89,-2.84zm33.83 -3.3l0.49 2.83c3.21,-2.54 7.37,-7.22 10.41,-10.26 4.95,-4.95 5.42,-4.87 7.71,-10.85 0.39,1.22 0.39,1.83 0.24,3.13 -0.51,4.41 -1.38,6.11 -5.19,9.88 -4.41,4.36 -8.79,8.78 -13.18,13.17 -0.32,-1.66 -0.33,-2.19 -0.48,-3.89 -0.17,-1.89 -0.58,-2.09 0,-4.01zm-58.29 -26.14l-10.38 4.58c-14.21,6.21 -12.41,2.68 -26.05,-5.51 -1.72,-1.03 -3.99,-2.16 -5.39,-3.35l3.11 -3.11c3.39,2.64 6.82,4.03 10.69,7.23 7.37,6.08 14.17,1.36 20.93,-1.7 2.67,-1.22 8.04,-4.07 10.49,-4.55 -0.57,0.96 -1.35,2.27 -2.06,3.32 -1.97,2.85 -1.56,2.14 -1.34,3.09zm15.51 -28.38c-1.66,-1.67 -4.67,-4.01 -6.43,-5.25l-13.18 -7.57c-1.8,-0.99 -5.22,-2.64 -6.58,-3.8 0.92,-0.57 1.49,-0.84 2.39,-1.2l2.71 -0.91c3.65,2.61 8.79,4.85 12.84,7.37 4.12,2.56 11.11,6.85 8.25,11.36zm-39.59 7.71c-2.06,-0.77 -3.89,-1.38 -6.1,-2.06 -3.64,-1.11 -1.55,-1.82 1.35,-4.72 2.02,1.52 7.7,2.49 10.57,4.05l-5.82 2.73z"/>
   <path class="fil3" d="M98.62 71.93c-0.86,-1.35 -0.52,-1.93 -1.44,-3.15 -0.79,-1.03 -1.96,-1.48 -2.87,-1.7 -2.97,-0.71 -3.8,0.95 -5.61,3.15 -1.12,-11.45 8.36,-9.28 9.51,-4.12l0.42 4.19c0.08,1.12 0.18,0.43 -0.01,1.63z"/>
  </g>
 </g>
</svg>
