<?xml version="1.0" encoding="UTF-8"?>
<!DOCTYPE svg PUBLIC "-//W3C//DTD SVG 1.1//EN" "http://www.w3.org/Graphics/SVG/1.1/DTD/svg11.dtd">
<!-- Creator: CorelDRAW 2020 (64 Bit) -->
<?xml-stylesheet href="naturePlan.css" type="text/css"?>
<svg xmlns="http://www.w3.org/2000/svg" xml:space="preserve" width="1315px" height="400px" version="1.1" style="shape-rendering:geometricPrecision; text-rendering:geometricPrecision; image-rendering:optimizeQuality; fill-rule:evenodd; clip-rule:evenodd"
viewBox="0 0 1225.37 372.67"
 xmlns:xlink="http://www.w3.org/1999/xlink"
 xmlns:xodm="http://www.corel.com/coreldraw/odm/2003">
 <g id="Camada_x0020_1">
  <metadata id="CorelCorpID_0Corel-Layer"/>
  <path class="fil0" d="M500.63 228.78c-0.73,-3.65 -1.46,-7.06 -2.19,-10.7 -5.11,-23.6 -10.95,-46.71 -16.54,-70.06 -4.14,-16.78 -7.78,-33.81 -12.41,-50.35 -2.43,-9.24 -6.56,-18 -9.97,-27 -2.92,-8.02 -9.97,-7.78 -14.35,-6.81 -8.76,2.19 -7.3,10.22 -6.32,13.14 0.24,0.73 0,2.43 0.24,3.16 0.24,9.24 0.24,18.49 0.73,27.73 0.24,5.84 1.46,11.67 1.46,17.76 0.24,7.78 -0.24,15.56 -0.24,23.35 0,15.81 -0.25,31.37 0.24,47.19 0.24,7.05 0.73,49.13 0.97,59.1 0,7.3 0.73,14.84 1.22,22.38 0.24,7.3 0.48,14.59 -0.98,21.65 -0.97,5.35 6.33,9.24 9,9.24 6.09,0 10.22,-4.13 9.98,-10.95 -0.73,-15.81 -0.98,-31.86 -1.46,-47.67 -0.49,-13.38 -1.7,-26.51 -1.95,-39.89 -0.24,-18.24 -0.24,-36.73 -0.24,-55.22 0,-4.86 -0.24,-9.72 -0.49,-14.59 -0.24,-9.73 -0.24,-19.22 -0.48,-28.7 0,-3.65 0,-7.06 -0.25,-10.46 -0.24,-3.41 -0.73,-6.57 -2.19,-9.49l-4.37 2.19c0.97,1.95 1.94,4.14 2.67,6.33 3.16,11.43 6.81,22.62 9.49,34.05 3.89,15.81 7.05,31.62 10.46,47.67 1.21,6.33 2.43,12.65 3.89,18.98 1.21,5.1 3.16,10.21 4.38,15.32 3.16,15.33 6.56,30.65 9,45.97 2.19,13.14 3.4,26.52 4.86,39.65 0.73,7.05 6.57,11.92 12.16,12.41 6.08,0.73 11.43,-3.65 11.43,-12.41l0 -82.94c-0.24,-12.41 -1.21,-24.81 -1.21,-37.22 -0.24,-18.49 -0.24,-37.22 0,-55.94 0,-18.25 0.97,-36.49 0.97,-54.73 0,-2.68 -1.46,-4.62 -3.16,-6.81 -0.24,-0.25 -0.49,-0.49 -4.38,-6.33 -4.38,5.35 -4.62,5.84 -5.11,6.08 -1.94,1.95 -3.89,3.9 -4.13,7.06 -0.73,9.73 -0.97,19.46 -0.97,29.19 -0.25,18.48 -0.49,37.21 -0.25,55.94 0,14.35 0,28.7 0.25,43.05 0,6.33 0.97,12.9 0.97,19.46 0,3.41 -0.49,6.81 -0.73,10.22z"/>
  <path class="fil0" d="M566.67 159.77c4.85,27.22 6.52,55.01 12.86,82.05l-23.12 -1.12 10.26 -80.93zm33.38 150.85c1.49,-1.3 1.49,-3.17 1.49,-3.73 0,-0.74 -0.19,-1.49 -0.19,-2.05 -0.56,-3.36 -1.12,-6.71 -1.68,-10.26 -1.12,-8.76 -2.05,-17.52 -3.35,-26.47 -1.87,-12.87 -4.11,-25.92 -6.34,-38.79 -2.05,-11.56 -4.66,-22.93 -6.53,-34.49 -1.68,-10.45 -2.61,-20.89 -3.92,-31.33 -1.49,-10.63 -2.98,-21.26 -5.03,-31.89 -0.19,-1.86 -1.12,-3.54 -1.86,-4.84 -0.75,-1.31 -1.5,-2.61 -4.29,-8.21 -4.66,3.92 -5.6,4.66 -6.34,5.22 -0.75,0.56 -2.43,1.87 -2.99,3.73 -1.3,4.66 -2.05,9.51 -2.79,14.36 -0.56,4.66 -0.75,9.32 -1.31,13.8 -1.68,11.37 -3.54,22.75 -5.03,34.12 -1.49,12.49 -2.61,24.8 -4.11,37.29 -1.11,9.7 -2.61,19.21 -3.35,28.91 -0.93,12.68 -1.31,25.54 -1.68,38.22 -0.19,5.22 0,10.44 0,18.65 10.26,2.42 12.68,-2.99 12.87,-7.09 0.18,-4.85 0,-9.51 0.18,-14.17 0.19,-9.51 0.56,-18.83 0.94,-28.34 0.18,-3.17 0.55,-6.34 0.74,-9.32 8.58,-1.87 16.97,-0.75 25.73,1.49 0.19,0.18 0.56,0.18 0.56,0.37 1.49,11 2.99,22.19 4.1,33.38 0.75,6.15 0.94,12.3 1.5,18.46 0.18,1.86 1.12,3.17 1.67,3.73 0.38,0.56 0.94,1.12 3.36,4.84 3.73,-2.61 4.48,-2.98 5.22,-3.54 0.75,-0.37 1.68,-1.12 2.43,-2.05z"/>
  <path id="1" class="fil0" d="M639.58 134.23c0.56,2.98 0.93,5.96 0.93,8.76 0,11 -0.37,22 -0.37,32.82 0,7.83 0.37,15.85 0.74,23.68 0.56,13.8 1.68,27.59 1.87,41.39 0.18,16.23 0,32.26 -0.19,48.48 0,5.78 0,11.75 -0.19,17.72 0,4.47 3.36,8.76 8.77,7.08 2.79,-0.74 5.59,-4.29 5.78,-7.27 0.18,-4.85 -0.38,-9.7 -0.38,-14.73 -0.18,-16.22 0,-32.63 -0.37,-48.85 -0.19,-8.77 -0.74,-17.34 -1.12,-26.11 -0.37,-10.25 -0.93,-20.7 -0.93,-31.14 -0.19,-16.97 0,-33.93 0,-51.28 2.98,0.19 5.97,0.19 9.14,0.38 2.42,0 9.13,-0.38 8.76,-7.65 -0.19,-6.71 -5.97,-7.08 -8.95,-6.9 -4.29,0.56 -8.39,0.56 -12.68,0.56 -4.29,0 -10.63,-0.18 -16.03,0 -7.65,0.19 -13.06,3.55 -13.24,5.22 -0.38,5.41 2.42,7.46 8.76,7.65 3.36,0 6.53,0 9.7,0.37l0 -0.18z"/>
  <path id="2" class="fil0" d="M720.87 236.97c0,0.93 0,2.05 -0.18,2.98 -1.12,13.24 -1.87,26.48 -3.55,39.53 -0.55,3.73 -1.3,7.27 -2.42,10.63 -0.93,2.8 -1.68,5.41 -2.61,8.2 -0.19,-0.56 -0.19,-1.12 -0.37,-1.86 -0.38,-1.87 -0.38,-3.73 -0.93,-5.59 -3.92,-14.36 -4.29,-29.47 -5.23,-44.2 -0.74,-13.8 0.38,-27.78 0.56,-41.58 0.19,-9.13 0.19,-18.27 0.19,-27.41 0.19,-16.41 0.56,-32.82 0.56,-49.22 0,-2.8 -0.75,-7.84 -6.53,-7.84 -3.35,0 -5.22,2.24 -5.78,4.29 -0.37,0.93 -0.37,1.87 -0.37,2.43 0,0.37 0,0.74 0,1.12 -0.19,1.67 0,3.35 0,5.03 0,1.3 0.19,2.61 0.19,3.92 -0.19,11.56 -0.38,23.12 -0.56,34.86 0,3.17 -0.56,6.34 -0.56,9.51 -0.19,9.89 0,19.96 -0.19,30.02 -0.37,11.38 -1.49,22.94 -1.12,34.31 0.56,12.5 1.68,24.99 3.36,37.48 1.12,9.33 2.05,18.28 7.46,26.48 3.91,5.78 17.15,6.53 20.51,-1.12 1.86,-4.47 3.54,-9.13 4.66,-13.8 1.31,-5.78 1.86,-11.56 2.61,-17.34 0.93,-7.08 1.68,-13.98 2.05,-20.88 0.93,-17.16 1.49,-34.31 2.24,-51.47 0.56,-14.35 1.3,-28.9 2.05,-43.44 0.56,-9.88 0.93,-19.58 1.68,-29.46 0.18,-3.36 0,-8.77 -6.9,-9.33 -6.71,-0.56 -7.46,4.29 -7.65,8.21 -0.18,9.88 -0.56,19.76 -0.93,29.65 -0.37,7.08 -0.93,14.35 -1.12,21.44 -0.18,6.53 0.38,13.24 0.19,19.76 -0.37,10.45 -1.12,20.7 -1.87,34.69l0.56 0z"/>
  <path id="3" class="fil0" d="M774.95 140.94c5.59,4.29 9.32,10.44 8.39,21.07 -0.37,5.03 -5.22,12.31 -9.88,16.03l1.49 -37.1zm31.14 173.78c6.53,-0.74 5.97,-6.52 5.41,-8.95 -0.19,-1.12 -0.19,-2.42 -0.56,-3.73 -2.24,-8.76 -4.48,-17.52 -6.72,-26.47 -2.98,-11.75 -5.59,-23.69 -8.76,-35.43 -3.36,-12.12 -7.08,-24.24 -10.44,-36.36 -1.31,-4.48 -2.8,-9.14 -4.1,-13.8l1.49 -0.75c0.56,-0.37 1.49,-0.93 2.23,-1.86 8.4,-9.51 15.48,-21.07 11.75,-36.18 -0.74,-2.79 -1.3,-5.59 -2.42,-8.2 -1.12,-2.98 -2.8,-5.78 -5.78,-8.21 -4.1,-3.17 -8.21,-6.33 -12.12,-9.5 -1.12,-0.75 -2.24,-1.5 -3.36,-2.24 -1.3,-0.56 -2.61,-1.31 -7.64,-3.55 -1.68,4.29 -2.05,4.85 -2.24,5.6 -0.37,0.74 -0.93,1.86 -0.93,3.36 -0.38,11.37 -0.38,22.56 -0.75,33.75 -0.37,6.71 -1.68,13.42 -1.68,20.32 -0.18,11 0.56,22 0.56,33 0,11.38 -0.56,22.57 -0.56,33.94 0,8.95 0.38,17.71 0.56,26.66 0.37,10.07 0.75,19.96 0.56,29.84 0,5.03 2.61,8.39 8.02,8.39 2.61,0 5.22,-1.12 6.15,-3.92 0.38,-0.93 0.38,-1.86 0.38,-2.61 0,-0.74 0,-1.49 -0.19,-2.23 -0.75,-8.4 -1.49,-16.6 -1.68,-24.99 -0.18,-5.97 0.56,-11.75 0.56,-17.53 0,-3.73 -0.74,-7.46 -0.74,-11.19 -0.19,-8.39 -0.19,-16.78 -0.19,-25.17 0,-4.66 0,-9.32 0,-13.98 0.37,0.93 0.74,2.05 1.12,3.17 3.54,12.3 6.9,24.61 10.44,37.1 3.17,11.75 6.71,23.68 9.69,35.62 1.68,6.34 2.43,12.86 3.36,19.2 0.56,4.29 3.36,7.46 8.58,6.9z"/>
  <path id="4" class="fil0" d="M844.69 299.06c0,-5.41 0,-10.82 0,-16.22 0.37,-18.65 0.56,-37.3 0.93,-55.94 0.19,-11.75 0.56,-23.5 0.75,-35.24 4.1,0 8.2,-0.38 12.3,-0.56 6.53,-0.19 7.09,-6.16 6.72,-8.77 -0.56,-3.91 -4.11,-6.34 -8.58,-5.4 -3.17,0.74 -6.53,0.93 -9.88,1.3l0 -42.89c5.96,0 11.37,0 16.96,0 4.48,0 8.21,-2.61 8.21,-7.83 -0.19,-6.52 -6.16,-6.9 -8.39,-6.9 -6.72,0.19 -13.61,-0.18 -20.33,0.38 -3.35,0.18 -6.71,2.42 -8.76,4.66 -1.12,1.49 -1.31,3.54 -1.12,5.22 0,0.93 0.37,2.05 0.37,2.98 0,13.27 0.38,26.6 0.19,39.91 -0.19,12.3 -1.12,24.61 -1.31,36.73 -0.37,12.68 0,25.36 -0.18,38.04 0,8.39 -0.56,16.78 -0.75,25.36 -0.18,8.2 -0.37,16.59 -0.74,24.98 -0.19,2.61 -0.19,4.48 -0.19,5.97 0.37,4.1 2.05,6.71 6.53,7.65 1.3,0.37 3.17,0.55 5.59,0.74 1.12,0.19 2.05,0.37 3.17,0.56 3.54,0.37 7.27,0.93 10.81,0.93 1.87,0 3.36,-1.12 4.11,-1.49 0.56,-0.37 1.12,-0.93 4.84,-3.36 -2.42,-3.35 -2.61,-3.72 -2.61,-3.91 -0.37,-0.56 -0.56,-0.93 -0.74,-1.49 -0.93,-1.31 -2.24,-2.8 -3.92,-3.17 -4.29,-1.12 -9.13,-2.24 -13.98,-2.24z"/>
  <path class="fil1" d="M247.27 362.48c22.38,-33.18 13.68,-81.53 -25.82,-112.81 -22.62,18.71 -51.21,22.28 -83.06,1.89 16.6,-15.64 41.46,-18.76 67.06,-13.85 -28.64,-23.44 -56.22,-51.38 -87.8,-72.21 3.93,65.89 -10.37,132.31 12.74,198.62 17.66,5.55 36.45,8.55 55.94,8.55 21.34,0 41.84,-3.59 60.94,-10.19zm-152 -108.93c-3.88,-33.09 -58.65,-28.55 -94.12,-46.36 6.46,57.95 39.5,107.89 86.65,137.32 8.93,-26.85 11.04,-57.37 7.47,-90.96zm-0.21 -129.54c2.39,-33.96 4.78,-70.03 7.17,-104 -60.65,30.74 -102.23,93.68 -102.23,166.32 0,2.45 0.05,4.89 0.14,7.31 11.81,7.04 26.87,13.25 44.02,16.64 -12.92,-12.51 -18.01,-27.07 -16.9,-41.26 23.5,9.71 32.24,25.13 30.53,44.58 12.93,1.25 23.86,3.02 36.9,7.53 -0.02,-25.36 -0.03,-50.71 -0.05,-76.06 -26.62,-1.16 -45.21,-14.8 -51.37,-48.22 22.01,-5.88 38.2,7.78 51.79,27.16zm24.18 -35.88c29,4.94 75.07,-58.22 104.71,-84.33 -12.15,-2.49 -24.73,-3.8 -37.62,-3.8 -22.88,0 -44.8,4.12 -65.05,11.67 -0.68,25.49 -1.36,50.97 -2.04,76.46zm145.72 -70.78c1.24,35.91 0,110.63 7.98,130.58 1.68,5.15 15.82,1.58 24.85,0 -1.98,-20.24 10.06,-34.17 32.79,-45.43 0.03,16.26 -2.64,30.3 -17.21,41.21 18.66,-2.99 33.11,-11.1 49.67,-16.65 -16.3,-48.61 -52.09,-88.27 -98.08,-109.71zm-8.55 240.17c-10.46,-82.75 -11.05,-165.49 -11.83,-248.23 -0.83,-0.28 -1.66,-0.54 -2.49,-0.81 -18.59,16.73 -37.17,33.45 -55.76,50.17 23.66,-6.53 37.63,-3.01 46.39,5.9 -19.03,16.81 -37.46,17.15 -55.37,3.37 -16.42,20.48 -58.16,47.51 -58.16,59.58 -0.19,9.87 -0.11,16.66 0.05,25.69 15.23,11.05 29.84,23.3 44.79,34.72 -12.46,-26.95 -8.05,-51.16 7.56,-70.51 22.64,27.1 21.58,53.88 3.66,80.42 27.05,19.9 52.84,47.8 81.16,59.7zm19.69 -15.27c4.62,32.76 -1.48,80.89 18.06,96.07 47.51,-33.77 78.51,-89.26 78.51,-151.99 0,-15.73 -1.95,-31.02 -5.63,-45.61 -27.43,7.21 -84.56,7.21 -92.42,45.61 0,14.85 0.79,28.91 0.79,43.76 18.55,-25.83 39.2,-31.32 62.8,-22.9 -12.34,30.92 -33.48,39.52 -62.11,35.06z"/>
  <path class="fil0" d="M985.88 88.19c4.37,14.83 7.05,28.46 2.67,42.32 -1.46,4.62 -3.65,6.81 -7.54,7.54 -1.7,0.49 -3.4,0.97 -5.11,1.22l4.14 -57.89c2.92,1.7 4.86,3.64 5.84,6.81zm-8.27 69.08c16.29,-3.65 27.24,-13.38 29.67,-31.14 2.19,-14.84 0,-28.94 -4.38,-42.56 -4.38,-13.63 -14.59,-19.22 -26.27,-21.9 -11.19,-2.43 -16.54,2.92 -14.11,13.63 0.49,2.67 0.73,5.83 0.49,9 -0.49,11.91 -1.46,23.83 -1.95,35.75 -0.73,17.27 -1.45,34.3 -2.18,51.57 -0.49,15.08 -0.98,30.4 -1.46,45.48 -0.49,14.11 -1.46,28.46 -1.95,42.57 -0.49,11.19 -0.97,22.38 -1.22,33.57 0,4.37 -0.24,9 0.73,13.38 0.98,4.37 6.57,7.54 9.98,7.29 4.62,-0.24 8.27,-5.84 8.51,-9 0.24,-8.27 0,-16.29 0,-24.32 0,-18.73 -0.24,-37.46 0.24,-56.19 0.25,-15.81 1.22,-31.62 1.71,-47.67 0.24,-6.09 0.24,-12.41 0.24,-18.73 0.73,-0.25 1.22,-0.49 1.95,-0.73l0 0z"/>
  <path class="fil0" d="M1045.62 299.13c0,-0.18 -0.19,-0.37 -0.19,-0.56 -0.18,-12.49 -0.93,-24.98 -0.93,-37.51 0,-13.05 1.12,-25.95 1.31,-39 0.37,-13.64 0,-27.25 0,-40.9 -0.19,-17.34 -0.38,-34.71 -0.75,-52.05 0,-1.49 0,-2.99 -0.56,-4.32 -0.74,-2.05 -2.61,-4.85 -6.52,-4.29 -5.6,0.93 -6.16,6.56 -6.16,8.79 -0.18,7.09 0.19,14.18 0.38,21.26 0.37,13.46 0.93,26.88 0.93,40.34 0,12.12 -0.75,24.27 -0.93,36.21 -0.56,21.66 -0.94,43.29 -1.31,64.76 0,4.66 -0.19,9.14 -0.37,13.61 -0.19,3.55 1.12,7.09 5.96,8.21 6.16,1.49 26.67,-0.19 27.6,-5.97 1.12,-6.71 -4.47,-8.76 -9.88,-8.76 -2.61,0 -5.78,0.37 -8.58,0.56l0 -0.38z"/>
  <path id="1" class="fil0" d="M1109.39 159.66c4.85,27.22 6.53,55 12.87,82.04l-23.12 -1.12 10.25 -80.92zm33.38 150.85c1.49,-1.31 1.49,-3.17 1.49,-3.73 0,-0.75 -0.19,-1.49 -0.19,-2.05 -0.56,-3.36 -1.11,-6.72 -1.67,-10.26 -1.12,-8.76 -2.06,-17.53 -3.36,-26.48 -1.87,-12.86 -4.1,-25.91 -6.34,-38.78 -2.05,-11.56 -4.66,-22.94 -6.53,-34.5 -1.67,-10.44 -2.61,-20.88 -3.91,-31.32 -1.49,-10.63 -2.99,-21.26 -5.04,-31.89 -0.18,-1.86 -1.12,-3.54 -1.86,-4.85 -0.75,-1.3 -1.49,-2.61 -4.29,-8.2 -4.66,3.92 -5.59,4.66 -6.34,5.22 -0.75,0.56 -2.42,1.87 -2.98,3.73 -1.31,4.66 -2.05,9.51 -2.8,14.36 -0.56,4.66 -0.75,9.32 -1.31,13.8 -1.67,11.37 -3.54,22.74 -5.03,34.12 -1.49,12.49 -2.61,24.8 -4.1,37.29 -1.12,9.7 -2.61,19.21 -3.36,28.9 -0.93,12.68 -1.3,25.55 -1.68,38.23 -0.18,5.22 0,10.44 0,18.64 10.26,2.43 12.68,-2.98 12.87,-7.08 0.19,-4.85 0,-9.51 0.19,-14.17 0.18,-9.51 0.56,-18.83 0.93,-28.34 0.18,-3.17 0.56,-6.34 0.74,-9.33 8.58,-1.86 16.97,-0.74 25.74,1.49 0.18,0.19 0.56,0.19 0.56,0.38 1.49,11 2.98,22.19 4.1,33.37 0.74,6.16 0.93,12.31 1.49,18.46 0.19,1.87 1.12,3.17 1.68,3.73 0.37,0.56 0.93,1.12 3.35,4.85 3.73,-2.61 4.48,-2.98 5.22,-3.54 0.75,-0.37 1.68,-1.12 2.43,-2.05z"/>
  <path id="2" class="fil0" d="M1211.76 249.16c-0.56,-2.8 -1.12,-5.41 -1.68,-8.2 -3.91,-18.09 -8.39,-35.8 -12.68,-53.71 -3.17,-12.86 -5.96,-25.91 -9.51,-38.59 -1.86,-7.09 -5.03,-13.8 -7.64,-20.7 -2.24,-6.15 -7.65,-5.97 -11,-5.22 -6.72,1.68 -5.6,7.83 -4.85,10.07 0.19,0.56 0,1.86 0.19,2.42 0.18,7.09 0.18,14.17 0.55,21.26 0.19,4.47 1.12,8.95 1.12,13.61 0.19,5.97 -0.18,11.93 -0.18,17.9 0,12.12 -0.19,24.05 0.18,36.17 0.19,5.41 0.56,37.67 0.75,45.32 0,5.59 0.56,11.37 0.93,17.15 0.19,5.59 0.37,11.19 -0.74,16.6 -0.75,4.1 4.84,7.08 6.89,7.08 4.67,0 7.84,-3.17 7.65,-8.39 -0.56,-12.12 -0.75,-24.43 -1.12,-36.55 -0.37,-10.25 -1.3,-20.32 -1.49,-30.58 -0.19,-13.98 -0.19,-28.15 -0.19,-42.32 0,-3.73 -0.18,-7.46 -0.37,-11.19 -0.19,-7.46 -0.19,-14.73 -0.37,-22 0,-2.8 0,-5.41 -0.19,-8.02 -0.19,-2.61 -0.56,-5.04 -1.68,-7.27l-3.35 1.67c0.74,1.49 1.49,3.17 2.05,4.85 2.42,8.77 5.22,17.34 7.27,26.11 2.98,12.12 5.41,24.24 8.02,36.54 0.93,4.85 1.86,9.7 2.98,14.55 0.93,3.91 2.42,7.83 3.36,11.74 2.42,11.75 5.03,23.5 6.9,35.25 1.67,10.07 2.61,20.32 3.73,30.39 0.55,5.41 5.03,9.14 9.32,9.51 4.66,0.56 8.76,-2.8 8.76,-9.51l0 -63.58c-0.18,-9.51 -0.93,-19.02 -0.93,-28.53 -0.19,-14.17 -0.19,-28.53 0,-42.89 0,-13.98 0.75,-27.97 0.75,-41.95 0,-2.06 -1.12,-3.55 -2.43,-5.23 -0.18,-0.18 -0.37,-0.37 -3.35,-4.84 -3.36,4.1 -3.55,4.47 -3.92,4.66 -1.49,1.49 -2.98,2.98 -3.17,5.41 -0.56,7.45 -0.75,14.91 -0.75,22.37 -0.18,14.17 -0.37,28.53 -0.18,42.89 0,11 0,22 0.18,33 0,4.85 0.75,9.88 0.75,14.92 0,2.61 -0.37,5.22 -0.56,7.83z"/>
 </g>
</svg>
