<?xml version="1.0" encoding="UTF-8"?>
<!DOCTYPE svg PUBLIC "-//W3C//DTD SVG 1.1//EN" "http://www.w3.org/Graphics/SVG/1.1/DTD/svg11.dtd">
<!-- Creator: CorelDRAW 2020 (64 Bit) -->
<?xml-stylesheet href="naturePlan-logo-colorido.css" type="text/css"?>
<svg xmlns="http://www.w3.org/2000/svg" xml:space="preserve" width="1315px" height="400px" version="1.1" style="shape-rendering:geometricPrecision; text-rendering:geometricPrecision; image-rendering:optimizeQuality; fill-rule:evenodd; clip-rule:evenodd"
viewBox="0 0 1191.87 362.48"
 xmlns:xlink="http://www.w3.org/1999/xlink"
 xmlns:xodm="http://www.corel.com/coreldraw/odm/2003">
 <g id="Camada_x0020_1">
  <metadata id="CorelCorpID_0Corel-Layer"/>
  <path class="fil0" d="M486.94 222.52c-0.71,-3.54 -1.42,-6.86 -2.13,-10.41 -4.97,-22.94 -10.64,-45.42 -16.09,-68.13 -4.02,-16.33 -7.57,-32.89 -12.06,-48.98 -2.37,-8.99 -6.39,-17.5 -9.7,-26.26 -2.84,-7.81 -9.7,-7.57 -13.96,-6.62 -8.52,2.13 -7.1,9.93 -6.15,12.77 0.23,0.71 0,2.37 0.23,3.08 0.24,8.99 0.24,17.98 0.71,26.97 0.24,5.68 1.42,11.36 1.42,17.27 0.24,7.57 -0.23,15.14 -0.23,22.71 0,15.38 -0.24,30.52 0.23,45.9 0.24,6.86 0.71,47.79 0.95,57.49 0,7.1 0.71,14.43 1.18,21.77 0.24,7.1 0.48,14.19 -0.94,21.05 -0.95,5.21 6.15,8.99 8.75,8.99 5.92,0 9.94,-4.02 9.7,-10.64 -0.71,-15.38 -0.95,-30.99 -1.42,-46.37 -0.47,-13.01 -1.65,-25.79 -1.89,-38.8 -0.24,-17.75 -0.24,-35.73 -0.24,-53.71 0,-4.73 -0.23,-9.46 -0.47,-14.19 -0.24,-9.47 -0.24,-18.69 -0.47,-27.92 0,-3.55 0,-6.86 -0.24,-10.17 -0.24,-3.32 -0.71,-6.39 -2.13,-9.23l-4.26 2.13c0.95,1.89 1.89,4.02 2.6,6.15 3.08,11.12 6.63,22 9.23,33.12 3.79,15.38 6.86,30.76 10.17,46.37 1.19,6.15 2.37,12.31 3.79,18.46 1.18,4.96 3.07,9.93 4.26,14.9 3.07,14.91 6.39,29.81 8.75,44.72 2.13, 12.77 3.31,25.78 4.73,38.56 0.71,6.86 6.39,11.59 11.83,12.07 5.92,0.71 11.12,-3.55 11.12,-12.07l0 -80.68c-0.23,-12.06 -1.18,-24.13 -1.18,-36.19 -0.24,-17.98 -0.24,-36.2 0,-54.42 0,-17.74 0.95,-35.49 0.95,-53.23 0,-2.6 -1.42,-4.5 -3.08,-6.63 -0.24,-0.23 -0.47,-0.47 -4.26,-6.15 -4.26,5.21 -4.49,5.68 -4.97,5.92 -1.89,1.89 -3.78,3.78 -4.02,6.86 -0.71,9.46 -0.94,18.93 -0.94,28.39 -0.24,17.98 -0.48,36.2 -0.24,54.41 0,13.96 0,27.92 0.24,41.88 0,6.15 0.94,12.54 0.94,18.93 0,3.31 -0.47,6.62 -0.71,9.93z"/>
  <path class="fil0" d="M551.18 155.4c4.71,26.48 6.34,53.51 12.51,79.8l-22.49 -1.08 9.98 -78.72zm32.46 146.73c1.45,-1.27 1.45,-3.08 1.45,-3.63 0,-0.72 -0.18,-1.45 -0.18,-1.99 -0.54,-3.27 -1.09,-6.53 -1.63,-9.98 -1.09,-8.52 -2,-17.05 -3.27,-25.75 -1.81,-12.52 -3.99,-25.21 -6.16,-37.73 -2,-11.24 -4.54,-22.31 -6.35,-33.55 -1.63,-10.16 -2.54,-20.31 -3.81,-30.47 -1.45,-10.34 -2.9,-20.68 -4.9,-31.01 -0.18,-1.82 -1.08,-3.45 -1.81,-4.72 -0.73,-1.27 -1.45,-2.54 -4.17,-7.98 -4.53,3.81 -5.44,4.54 -6.17,5.08 -0.72,0.54 -2.35,1.81 -2.9,3.63 -1.27,4.53 -1.99,9.25 -2.72,13.96 -0.54,4.54 -0.73,9.07 -1.27,13.42 -1.63,11.07 -3.45,22.13 -4.9,33.19 -1.45,12.15 -2.54,24.12 -3.99,36.28 -1.09,9.43 -2.54,18.68 -3.26,28.11 -0.91,12.33 -1.27,24.84 -1.63,37.18 -0.18,5.08 0,10.15 0,18.13 9.97,2.36 12.33,-2.9 12.51,-6.89 0.18,-4.71 0,-9.25 0.18,-13.78 0.18,-9.25 0.55,-18.32 0.91,-27.57 0.18,-3.08 0.54,-6.17 0.72,-9.07 8.35,-1.81 16.51,-0.72 25.03,1.45 0.18,0.19 0.55,0.19 0.55,0.37 1.45,10.7 2.9,21.58 3.99,32.46 0.72,5.99 0.9,11.97 1.45,17.96 0.18,1.81 1.09,3.08 1.63,3.62 0.36,0.55 0.91,1.09 3.26,4.72 3.63,-2.54 4.36,-2.9 5.08,-3.45 0.73,-0.36 1.64,-1.09 2.36,-1.99z"/>
  <path id="1" class="fil0" d="M622.09 130.56c0.54,2.9 0.91,5.8 0.91,8.52 0,10.7 -0.37,21.4 -0.37,31.92 0,7.62 0.37,15.42 0.73,23.03 0.54,13.43 1.63,26.85 1.81,40.27 0.19,15.78 0,31.37 -0.18,47.15 0,5.62 0,11.43 -0.18,17.23 0,4.35 3.27,8.53 8.53,6.89 2.72,-0.72 5.44,-4.17 5.62,-7.07 0.18,-4.71 -0.36,-9.43 -0.36,-14.33 -0.19,-15.78 0,-31.74 -0.37,-47.52 -0.18,-8.52 -0.72,-16.86 -1.09,-25.39 -0.36,-9.97 -0.9,-20.13 -0.9,-30.28 -0.18,-16.51 0,-33.01 0,-49.88 2.9,0.18 5.8,0.18 8.88,0.36 2.36,0 8.89,-0.36 8.53,-7.43 -0.18,-6.53 -5.8,-6.89 -8.71,-6.71 -4.17,0.54 -8.16,0.54 -12.33,0.54 -4.17,0 -10.34,-0.18 -15.6,0 -7.43,0.18 -12.69,3.45 -12.87,5.08 -0.37,5.26 2.35,7.25 8.52,7.43 3.26,0 6.35,0 9.43,0.37l0 -0.18z"/>
  <path id="2" class="fil0" d="M701.17 230.49c0,0.91 0,1.99 -0.19,2.9 -1.08,12.88 -1.81,25.75 -3.44,38.45 -0.55,3.63 -1.27,7.07 -2.36,10.34 -0.91,2.72 -1.63,5.26 -2.54,7.98 -0.18,-0.55 -0.18,-1.09 -0.36,-1.82 -0.36,-1.81 -0.36,-3.62 -0.91,-5.44 -3.81,-13.96 -4.17,-28.65 -5.08,-42.98 -0.72,-13.42 0.37,-27.02 0.55,-40.45 0.18,-8.88 0.18,-17.77 0.18,-26.66 0.18,-15.96 0.54,-31.92 0.54,-47.88 0,-2.72 -0.72,-7.61 -6.34,-7.61 -3.27,0 -5.08,2.17 -5.63,4.17 -0.36,0.9 -0.36,1.81 -0.36,2.36 0,0.36 0,0.72 0,1.08 -0.18,1.64 0,3.27 0,4.9 0,1.27 0.18,2.54 0.18,3.81 -0.18,11.24 -0.36,22.49 -0.54,33.91 0,3.09 -0.55,6.17 -0.55,9.25 -0.18,9.62 0,19.41 -0.18,29.2 -0.36,11.07 -1.45,22.31 -1.09,33.38 0.55,12.15 1.64,24.3 3.27,36.45 1.09,9.07 1.99,17.77 7.25,25.75 3.81,5.63 16.69,6.35 19.95,-1.08 1.82,-4.36 3.45,-8.89 4.54,-13.43 1.27,-5.62 1.81,-11.24 2.54,-16.86 0.9,-6.89 1.63,-13.61 1.99,-20.32 0.91,-16.68 1.45,-33.37 2.18,-50.05 0.54,-13.97 1.27,-28.11 1.99,-42.26 0.55,-9.61 0.91,-19.04 1.64,-28.66 0.18,-3.26 0,-8.52 -6.71,-9.06 -6.53,-0.55 -7.26,4.17 -7.44,7.98 -0.18,9.61 -0.54,19.22 -0.91,28.83 -0.36,6.89 -0.9,13.97 -1.09,20.86 -0.18,6.35 0.37,12.88 0.19,19.22 -0.37,10.16 -1.09,20.14 -1.82,33.74l0.55 0z"/>
  <path id="3" class="fil0" d="M753.76 137.09c5.44,4.17 9.07,10.15 8.16,20.49 -0.36,4.9 -5.07,11.97 -9.61,15.6l1.45 -36.09zm30.29 169.03c6.35,-0.73 5.8,-6.35 5.26,-8.71 -0.18,-1.09 -0.18,-2.35 -0.54,-3.62 -2.18,-8.53 -4.36,-17.05 -6.53,-25.76 -2.9,-11.43 -5.44,-23.03 -8.53,-34.46 -3.26,-11.79 -6.89,-23.58 -10.15,-35.36 -1.27,-4.36 -2.72,-8.89 -3.99,-13.43l1.45 -0.72c0.54,-0.36 1.45,-0.91 2.17,-1.82 8.16,-9.24 15.06,-20.49 11.43,-35.18 -0.73,-2.72 -1.27,-5.44 -2.36,-7.98 -1.09,-2.9 -2.72,-5.62 -5.62,-7.98 -3.99,-3.08 -7.98,-6.17 -11.79,-9.25 -1.09,-0.73 -2.18,-1.45 -3.26,-2.18 -1.27,-0.54 -2.54,-1.27 -7.44,-3.44 -1.63,4.17 -1.99,4.71 -2.18,5.44 -0.36,0.72 -0.9,1.81 -0.9,3.26 -0.37,11.07 -0.37,21.95 -0.73,32.83 -0.36,6.53 -1.63,13.06 -1.63,19.77 -0.18,10.7 0.54,21.4 0.54,32.1 0,11.07 -0.54,21.95 -0.54,33.01 0,8.71 0.36,17.23 0.54,25.94 0.37,9.79 0.73,19.4 0.55,29.01 0,4.9 2.54,8.17 7.8,8.17 2.54,0 5.07,-1.09 5.98,-3.81 0.36,-0.91 0.36,-1.82 0.36,-2.54 0,-0.73 0,-1.45 -0.18,-2.18 -0.72,-8.16 -1.45,-16.14 -1.63,-24.3 -0.18,-5.81 0.54,-11.43 0.54,-17.05 0,-3.63 -0.72,-7.25 -0.72,-10.88 -0.18,-8.16 -0.18,-16.33 -0.18,-24.49 0,-4.53 0,-9.06 0,-13.6 0.36,0.91 0.72,2 1.09,3.08 3.44,11.97 6.71,23.94 10.15,36.1 3.09,11.42 6.53,23.03 9.43,34.64 1.64,6.16 2.36,12.51 3.27,18.68 0.54,4.17 3.26,7.25 8.34,6.71z"/>
  <path id="4" class="fil0" d="M821.59 290.88c0,-5.26 0,-10.52 0,-15.77 0.37,-18.14 0.55,-36.28 0.91,-54.41 0.18,-11.43 0.55,-22.86 0.73,-34.28 3.99,0 7.98,-0.37 11.97,-0.55 6.34,-0.18 6.89,-5.98 6.53,-8.52 -0.55,-3.81 -3.99,-6.17 -8.35,-5.26 -3.08,0.72 -6.35,0.91 -9.61,1.27l0 -41.72c5.8,0 11.06,0 16.5,0 4.36,0 7.98,-2.54 7.98,-7.61 -0.18,-6.35 -5.98,-6.71 -8.16,-6.71 -6.53,0.18 -13.24,-0.18 -19.77,0.36 -3.26,0.18 -6.53,2.36 -8.52,4.53 -1.09,1.45 -1.27,3.45 -1.09,5.08 0,0.91 0.36,2 0.36,2.9 0,12.91 0.37,25.88 0.19,38.82 -0.19,11.97 -1.09,23.94 -1.27,35.72 -0.37,12.34 0,24.67 -0.18,37 0,8.16 -0.55,16.33 -0.73,24.67 -0.18,7.98 -0.36,16.14 -0.73,24.3 -0.18,2.54 -0.18,4.36 -0.18,5.81 0.37,3.99 2,6.52 6.35,7.43 1.27,0.36 3.08,0.55 5.44,0.73 1.09,0.18 2,0.36 3.09,0.54 3.44,0.36 7.07,0.91 10.51,0.91 1.82,0 3.27,-1.09 3.99,-1.45 0.55,-0.37 1.09,-0.91 4.72,-3.27 -2.36,-3.26 -2.54,-3.62 -2.54,-3.81 -0.36,-0.54 -0.54,-0.9 -0.72,-1.45 -0.91,-1.27 -2.18,-2.72 -3.81,-3.08 -4.18,-1.09 -8.89,-2.18 -13.61,-2.18z"/>
  <path class="fil1" d="M240.51 352.57c21.77,-32.28 13.3,-79.3 -25.11,-109.73 -22,18.2 -49.82,21.68 -80.8,1.84 16.15,-15.21 40.34,-18.24 65.23,-13.46 -27.85,-22.8 -54.68,-49.98 -85.4,-70.25 3.82,64.09 -10.08,128.7 12.39,193.2 17.18,5.4 35.46,8.31 54.42,8.31 20.76,0 40.7,-3.49 59.27,-9.91z"/>
  <path class="fil2" d="M268.55 235.63c4.49,31.86 -1.43,78.68 17.57,93.44 46.21,-32.85 76.36,-86.82 76.36,-147.83 0,-15.31 -1.9,-30.17 -5.47,-44.37 -26.69,7.01 -82.25,7.01 -89.89,44.37 0,14.44 0.76,28.12 0.76,42.56 18.05,-25.12 38.13,-30.47 61.08,-22.28 -12,30.08 -32.57,38.44 -60.41,34.11z"/>
  <path class="fil2" d="M249.4 250.48c-10.17,-80.48 -10.75,-160.97 -11.5,-241.45 -0.81,-0.26 -1.62,-0.52 -2.43,-0.78 -18.08,16.27 -36.15,32.53 -54.23,48.8 23,-6.35 36.59,-2.93 45.12,5.73 -18.51,16.36 -36.44,16.69 -53.86,3.28 -15.97,19.93 -56.57,46.22 -56.57,57.96 -0.18,9.6 -0.1,16.2 0.05,24.98 14.81,10.75 29.03,22.67 43.57,33.78 -12.12,-26.22 -7.83,-49.77 7.35,-68.59 22.02,26.36 20.99,52.41 3.55,78.23 26.32,19.35 51.41,46.49 78.95,58.06z"/>
  <path class="fil1" d="M257.71 16.88c1.22,34.92 0,107.6 7.77,127 1.64,5.01 15.38,1.54 24.16,0 -1.91,-19.68 9.79,-33.23 31.9,-44.18 0.03,15.81 -2.57,29.47 -16.74,40.09 18.15,-2.92 32.21,-10.81 48.32,-16.21 -15.86,-47.27 -50.67,-85.85 -95.41,-106.7z"/>
  <path class="fil1" d="M115.98 85.72c28.21,4.81 73.01,-56.63 101.84,-82.03 -11.81,-2.42 -24.05,-3.69 -36.58,-3.69 -22.26,0 -43.58,4.01 -63.28,11.35 -0.66,24.79 -1.32,49.58 -1.98,74.37z"/>
  <path class="fil1" d="M92.46 120.62c2.33,-33.03 4.65,-68.12 6.98,-101.15 -59,29.89 -99.44,91.11 -99.44,161.77 0,2.38 0.05,4.75 0.14,7.1 11.49,6.86 26.13,12.89 42.81,16.2 -12.57,-12.17 -17.52,-26.34 -16.43,-40.14 22.86,9.44 31.36,24.44 29.69,43.36 12.58,1.21 23.21,2.94 35.89,7.32 -0.01,-24.66 -0.03,-49.32 -0.05,-73.98 -25.89,-1.12 -43.98,-14.39 -49.97,-46.89 21.41,-5.73 37.17,7.56 50.38,26.41z"/>
  <path class="fil2" d="M92.66 246.62c-3.77,-32.19 -57.04,-27.77 -91.54,-45.1 6.28,56.38 38.41,104.94 84.28,133.57 8.68,-26.11 10.74,-55.8 7.26,-88.47z"/>
  <path class="fil0" d="M958.92 85.78c4.26,14.43 6.86,27.68 2.6,41.16 -1.42,4.5 -3.54,6.63 -7.33,7.34 -1.66,0.47 -3.31,0.94 -4.97,1.18l4.02 -56.31c2.84,1.66 4.74,3.55 5.68,6.63zm-8.04 67.19c15.85,-3.55 26.5,-13.02 28.86,-30.29 2.13,-14.43 0,-28.15 -4.26,-41.4 -4.26,-13.25 -14.19,-18.69 -25.55,-21.29 -10.88,-2.37 -16.09,2.84 -13.72,13.25 0.47,2.6 0.71,5.67 0.47,8.75 -0.47,11.59 -1.42,23.19 -1.89,34.78 -0.71,16.8 -1.42,33.36 -2.13,50.16 -0.47,14.66 -0.95,29.57 -1.42,44.24 -0.47,13.72 -1.42,27.68 -1.89,41.4 -0.47,10.88 -0.95,21.77 -1.18,32.65 0,4.26 -0.24,8.75 0.71,13.01 0.94,4.26 6.38,7.34 9.69,7.1 4.5,-0.24 8.05,-5.68 8.29,-8.75 0.23,-8.05 0,-15.86 0,-23.66 0,-18.22 -0.24,-36.44 0.23,-54.65 0.24,-15.38 1.19,-30.76 1.66,-46.38 0.23,-5.91 0.23,-12.06 0.23,-18.21 0.71,-0.24 1.19,-0.48 1.9,-0.71l0 0z"/>
  <path class="fil0" d="M1017.03 290.96c0,-0.19 -0.18,-0.37 -0.18,-0.55 -0.18,-12.15 -0.9,-24.3 -0.9,-36.48 0,-12.7 1.08,-25.24 1.27,-37.94 0.36,-13.27 0,-26.51 0,-39.78 -0.19,-16.87 -0.37,-33.76 -0.73,-50.63 0,-1.45 0,-2.9 -0.54,-4.2 -0.73,-2 -2.54,-4.72 -6.35,-4.17 -5.44,0.9 -5.99,6.37 -5.99,8.55 -0.18,6.89 0.18,13.78 0.37,20.68 0.36,13.08 0.9,26.14 0.9,39.23 0,11.79 -0.72,23.61 -0.9,35.22 -0.55,21.07 -0.91,42.1 -1.27,62.99 0,4.54 -0.19,8.89 -0.37,13.24 -0.18,3.45 1.09,6.89 5.81,7.98 5.98,1.45 25.93,-0.18 26.84,-5.8 1.09,-6.53 -4.35,-8.53 -9.61,-8.53 -2.54,0 -5.63,0.37 -8.35,0.55l0 -0.36z"/>
  <path id="1" class="fil0" d="M1079.06 155.29c4.72,26.48 6.35,53.51 12.52,79.8l-22.49 -1.08 9.97 -78.72zm32.47 146.73c1.45,-1.27 1.45,-3.09 1.45,-3.63 0,-0.72 -0.18,-1.45 -0.18,-1.99 -0.55,-3.27 -1.09,-6.53 -1.64,-9.98 -1.08,-8.52 -1.99,-17.05 -3.26,-25.75 -1.82,-12.52 -3.99,-25.21 -6.17,-37.73 -1.99,-11.24 -4.53,-22.31 -6.35,-33.55 -1.63,-10.16 -2.54,-20.31 -3.8,-30.47 -1.45,-10.34 -2.91,-20.68 -4.9,-31.01 -0.18,-1.82 -1.09,-3.45 -1.81,-4.72 -0.73,-1.27 -1.46,-2.54 -4.18,-7.98 -4.53,3.81 -5.44,4.54 -6.16,5.08 -0.73,0.54 -2.36,1.81 -2.9,3.63 -1.27,4.53 -2,9.25 -2.73,13.96 -0.54,4.54 -0.72,9.07 -1.26,13.42 -1.64,11.07 -3.45,22.13 -4.9,33.19 -1.45,12.15 -2.54,24.12 -3.99,36.28 -1.09,9.43 -2.54,18.68 -3.27,28.11 -0.9,12.33 -1.27,24.84 -1.63,37.18 -0.18,5.08 0,10.15 0,18.13 9.98,2.36 12.33,-2.9 12.52,-6.89 0.18,-4.71 0,-9.25 0.18,-13.78 0.18,-9.25 0.54,-18.32 0.9,-27.57 0.19,-3.08 0.55,-6.17 0.73,-9.07 8.34,-1.81 16.5,-0.72 25.03,1.45 0.18,0.19 0.54,0.19 0.54,0.37 1.45,10.7 2.9,21.58 3.99,32.46 0.73,5.99 0.91,11.97 1.45,17.96 0.18,1.81 1.09,3.08 1.64,3.62 0.36,0.55 0.9,1.09 3.26,4.72 3.63,-2.54 4.35,-2.9 5.08,-3.45 0.72,-0.36 1.63,-1.09 2.36,-1.99z"/>
  <path id="2" class="fil0" d="M1178.63 242.35c-0.54,-2.72 -1.09,-5.26 -1.63,-7.98 -3.81,-17.59 -8.16,-34.82 -12.33,-52.24 -3.09,-12.51 -5.81,-25.2 -9.25,-37.54 -1.82,-6.89 -4.9,-13.42 -7.44,-20.13 -2.18,-5.98 -7.43,-5.8 -10.7,-5.08 -6.53,1.63 -5.44,7.62 -4.72,9.8 0.19,0.54 0,1.81 0.19,2.35 0.18,6.9 0.18,13.79 0.54,20.68 0.18,4.35 1.09,8.71 1.09,13.24 0.18,5.8 -0.18,11.61 -0.18,17.41 0,11.79 -0.18,23.4 0.18,35.19 0.18,5.25 0.54,36.63 0.72,44.07 0,5.44 0.55,11.06 0.91,16.68 0.18,5.44 0.36,10.88 -0.72,16.15 -0.73,3.98 4.71,6.89 6.71,6.89 4.53,0 7.61,-3.09 7.43,-8.16 -0.54,-11.79 -0.72,-23.76 -1.09,-35.55 -0.36,-9.98 -1.27,-19.77 -1.45,-29.75 -0.18,-13.6 -0.18,-27.38 -0.18,-41.17 0,-3.62 -0.18,-7.25 -0.36,-10.88 -0.18,-7.25 -0.18,-14.33 -0.36,-21.4 0,-2.72 0,-5.26 -0.19,-7.8 -0.18,-2.54 -0.54,-4.9 -1.63,-7.07l-3.26 1.63c0.72,1.45 1.45,3.08 1.99,4.72 2.36,8.52 5.08,16.86 7.08,25.39 2.9,11.79 5.26,23.57 7.79,35.55 0.91,4.71 1.82,9.43 2.91,14.14 0.9,3.81 2.35,7.62 3.26,11.43 2.36,11.42 4.9,22.85 6.71,34.28 1.63,9.79 2.54,19.76 3.63,29.56 0.54,5.26 4.9,8.89 9.07,9.25 4.53,0.54 8.52,-2.72 8.52,-9.25l0 -61.85c-0.18,-9.25 -0.9,-18.5 -0.9,-27.75 -0.19,-13.78 -0.19,-27.75 0,-41.71 0,-13.6 0.72,-27.21 0.72,-40.81 0,-1.99 -1.09,-3.44 -2.36,-5.08 -0.18,-0.18 -0.36,-0.36 -3.26,-4.71 -3.27,3.99 -3.45,4.35 -3.81,4.53 -1.45,1.45 -2.9,2.9 -3.08,5.26 -0.55,7.26 -0.73,14.51 -0.73,21.77 -0.18,13.78 -0.36,27.75 -0.18,41.71 0,10.7 0,21.4 0.18,32.1 0,4.72 0.73,9.61 0.73,14.51 0,2.54 -0.37,5.08 -0.55,7.62z"/>
  <path class="fil3" d="M435.18 329.43l142.78 0 0 21.53 -143.85 0c-5.29,0 -9.63,-4.33 -9.63,-9.63l0 -1.2c0,-5.88 4.82,-10.7 10.7,-10.7z"/>
  <rect class="fil4" x="577.96" y="329.43" width="153.48" height="21.54"/>
  <rect class="fil5" x="731.44" y="329.43" width="153.48" height="21.54"/>
  <rect class="fil1" x="884.92" y="329.43" width="153.48" height="21.54"/>
  <path class="fil2" d="M1038.39 329.43l144.92 0c4.71,0 8.56,3.85 8.56,8.56l0 4.41c0,4.71 -3.85,8.56 -8.56,8.56l-144.92 0 0 -21.53z"/>
 </g>
</svg>
